<?xml version="1.0" encoding="UTF-8" standalone="no"?>
<svg
   xmlns:dc="http://purl.org/dc/elements/1.1/"
   xmlns:cc="http://creativecommons.org/ns#"
   xmlns:rdf="http://www.w3.org/1999/02/22-rdf-syntax-ns#"
   xmlns:svg="http://www.w3.org/2000/svg"
   xmlns="http://www.w3.org/2000/svg"
   id="svg2"
   version="1.1"
   width="200"
   height="70"
   viewBox="0 0 200 70.000002">
  <metadata
     id="metadata8">
    <rdf:RDF>
      <cc:Work
         rdf:about="">
        <dc:format>image/svg+xml</dc:format>
        <dc:type
           rdf:resource="http://purl.org/dc/dcmitype/StillImage" />
        <dc:title></dc:title>
      </cc:Work>
    </rdf:RDF>
  </metadata>
  <defs
     id="defs6" />
  <path
     style="fill:#4b4b4b;fill-opacity:1"
     d="M 49.926315,69.905358 C 49.182621,69.84984 46.655102,69.66278 44.309605,69.489681 20.723382,67.749008 5.8351048,61.897132 1.4895364,52.659139 0.41527877,50.375435 0,48.434183 0,45.696185 0,34.314598 10.247358,24.361907 30.073654,16.487304 36.288603,14.018853 45.362826,11.238616 52.318618,9.6717055 54.159428,9.2570323 54.961859,8.9054492 56.422029,7.8738032 57.420344,7.1684675 58.387084,6.2665338 58.570337,5.8695044 58.753592,5.472475 59.762217,4.2429393 60.811729,3.1372018 l 1.908205,-2.0104314 1.872237,-0.085975 c 1.768094,-0.0811907 1.94745,-0.03146 3.224408,0.8938954 l 1.352171,0.9798624 -0.02022,1.8403049 c -0.01123,1.0234148 -0.166694,2.2651861 -0.350191,2.7974875 -0.991179,2.8752702 -2.435809,7.5701542 -2.566228,8.3399502 -0.305717,1.80448 -0.90332,3.295757 -1.466757,3.66019 -0.451214,0.291848 -0.505895,0.421158 -0.266801,0.630927 0.257761,0.226149 0.246241,0.407478 -0.08065,1.269143 -0.209756,0.552912 -0.358736,1.255614 -0.33107,1.561555 0.02767,0.305944 -0.05794,0.930359 -0.19024,1.38759 -0.132304,0.45723 -0.240549,1.088456 -0.240549,1.402726 0,0.314267 -0.0873,0.571396 -0.194008,0.571396 -0.106704,0 -0.255578,0.275389 -0.330833,0.611978 -0.08553,0.38255 -0.251703,0.5494 -0.44325,0.445055 -0.300955,-0.163956 -1.528221,0.562435 -1.528221,0.904513 0,0.09598 0.205755,0.09812 0.457234,0.0047 0.896641,-0.332858 1.00727,0.259403 0.462164,2.47425 -0.810725,3.294102 -0.587346,3.952479 0.514213,1.51558 0.354684,-0.784641 0.926114,-1.78234 1.269845,-2.21711 0.343731,-0.434721 0.624966,-0.91335 0.624966,-1.063573 0,-0.150215 0.187223,-0.357487 0.416052,-0.460588 0.228829,-0.103103 0.416053,-0.378547 0.416053,-0.6121 0,-0.982044 6.795362,-11.354723 10.297302,-15.718164 0.572073,-0.712805 1.274162,-1.588327 1.560198,-1.945599 1.532371,-1.9140148 3.243704,-2.5624126 5.173287,-1.9600833 1.984165,0.6193668 2.31566,0.8707155 2.31566,1.7557973 0,0.435073 -0.106704,0.942513 -0.237115,1.127647 -0.130419,0.18514 -0.309549,0.98707 -0.398079,1.782084 -0.201416,1.808756 -2.681252,9.222242 -3.641106,10.885106 -0.393982,0.68254 -0.716332,1.385212 -0.716332,1.561493 0,0.17628 -0.187223,0.816396 -0.416052,1.422479 -0.228829,0.606084 -0.416053,1.315901 -0.416053,1.577369 0,0.26147 -0.187223,0.715925 -0.416052,1.009903 -0.449762,0.577809 -0.556608,1.761347 -0.188192,2.084576 0.252544,0.22157 1.228323,-0.418384 1.228323,-0.80558 0,-0.134977 -0.145943,-0.245409 -0.324317,-0.245409 -0.178374,0 -0.26365,-0.139347 -0.189506,-0.309651 0.09268,-0.212895 0.223606,-0.205036 0.418984,0.02514 0.334695,0.39432 1.199525,-0.443681 2.526846,-2.448456 0.930152,-1.404897 2.494967,-3.428517 3.767023,-4.871515 0.521148,-0.591182 0.871543,-1.253562 0.91207,-1.724157 0.04902,-0.56928 0.379216,-1.039693 1.294693,-1.844501 1.163093,-1.022491 1.313445,-1.076618 2.808355,-1.010992 2.170943,0.09531 3.689057,0.794975 3.863304,1.780525 0.143767,0.813163 -0.770156,3.797568 -1.625451,5.307885 -0.487605,0.861034 -0.649741,1.317269 -1.391115,3.914471 -0.254997,0.893314 -0.522091,1.690653 -0.593541,1.771863 -0.199558,0.226817 -2.058498,5.661836 -2.222112,6.496834 -0.07956,0.406052 -0.709977,2.332954 -1.400918,4.282004 -1.717575,4.84506 -1.9282,5.734244 -1.684624,7.111921 0.104665,0.592005 0.231188,0.72698 0.565209,0.602983 0.416423,-0.154585 0.972074,0.246145 0.972074,0.701048 0,0.420083 -2.392652,0.516421 -3.640461,0.146592 -1.4887,-0.441235 -2.498106,-1.216997 -2.797571,-2.150027 -0.27246,-0.848886 -0.280075,-1.630089 -0.01948,-1.999997 0.245041,-0.347888 2.713043,-8.07447 2.713043,-8.493789 0,-0.166024 0.145445,-0.530028 0.323215,-0.808878 0.177768,-0.27885 0.337668,-0.779384 0.355334,-1.112295 0.01765,-0.332914 0.181489,-0.66075 0.364051,-0.728522 0.208911,-0.07755 0.501265,-0.950516 0.788811,-2.355364 0.542028,-2.648152 0.537913,-2.578434 0.152157,-2.578434 -0.167597,0 -0.414407,0.299002 -0.548469,0.664449 -0.134066,0.365447 -0.789276,1.461788 -1.456026,2.436313 -3.664559,5.356132 -4.441124,6.534468 -5.17477,7.852026 -0.442839,0.795301 -1.227848,1.945298 -1.744459,2.555546 -0.516612,0.610249 -1.109222,1.574657 -1.316912,2.14313 -0.20769,0.568473 -1.157053,2.175658 -2.109694,3.57152 -0.952643,1.395862 -1.841595,2.845513 -1.975454,3.221443 -0.133858,0.375931 -0.755269,1.074949 -1.380916,1.553374 -0.904607,0.691741 -1.212862,0.803087 -1.505368,0.543769 -0.202305,-0.179352 -0.607986,-0.326096 -0.901509,-0.326096 -0.685756,0 -2.092414,-1.146266 -2.396835,-1.953151 -0.200097,-0.53036 -0.126869,-0.841275 0.486885,-2.067174 0.397322,-0.793608 0.879469,-1.841593 1.071436,-2.328855 0.191966,-0.487263 0.569447,-1.404937 0.838845,-2.039276 0.269398,-0.634339 0.441519,-1.33201 0.38249,-1.550381 -0.06244,-0.231002 0.03247,-0.397037 0.22697,-0.397037 0.183865,0 0.334297,-0.183073 0.334297,-0.406808 0,-0.223741 0.134857,-0.565681 0.299675,-0.759866 0.16482,-0.194176 0.243971,-0.559129 0.175887,-0.810992 -0.07159,-0.264852 0.02236,-0.57403 0.222812,-0.733282 0.190628,-0.151455 0.590011,-0.965553 0.887513,-1.809136 0.297502,-0.84358 0.750086,-1.932453 1.005738,-2.419716 0.255655,-0.487262 0.689839,-1.606206 0.964855,-2.486543 0.27502,-0.880339 1.599972,-4.726401 2.944343,-8.546809 1.34437,-3.820408 2.444309,-7.111094 2.444309,-7.312636 0,-0.201539 -0.208294,-0.460284 -0.462875,-0.574989 -0.364579,-0.164271 -0.552273,-0.02738 -0.883838,0.644549 -0.231529,0.469205 -1.029561,1.72232 -1.773407,2.784698 -0.743847,1.06238 -1.755976,2.675497 -2.249177,3.584703 -0.493201,0.909207 -1.171887,2.001135 -1.508191,2.426511 -0.336303,0.425375 -0.61146,0.955446 -0.61146,1.177937 0,0.222491 -0.153149,0.584963 -0.340333,0.805491 -0.187183,0.22053 -0.571661,0.934473 -0.854394,1.58654 -0.282734,0.652066 -0.808271,1.603303 -1.167859,2.11386 -0.359588,0.510554 -0.956557,1.507228 -1.326598,2.214831 -0.370041,0.7076 -0.978518,1.867564 -1.352171,2.577696 -0.373653,0.710129 -0.980228,1.906137 -1.347947,2.657796 -0.949621,1.941129 -2.124923,4.268626 -2.971882,5.885318 -0.880689,1.681079 -1.185716,2.360518 -1.451533,3.233232 -0.111307,0.365447 -0.298309,0.664449 -0.415556,0.664449 -0.117243,0 -0.213174,0.184963 -0.213174,0.411031 0,0.22607 -0.283111,0.923741 -0.629137,1.550381 -1.161366,2.103212 -2.045302,3.892038 -2.387744,4.832105 -0.52237,1.433998 -2.173879,3.542357 -2.774782,3.542357 -0.892626,0 -2.744218,-0.97613 -3.271534,-1.724697 -0.654923,-0.929715 -0.636886,-1.388102 0.118061,-3.000273 0.342263,-0.730894 0.629539,-1.594678 0.638394,-1.919519 0.0089,-0.324842 0.195368,-0.989291 0.414482,-1.476555 0.219111,-0.487263 0.557249,-1.317824 0.751416,-1.845692 0.194166,-0.527868 0.419156,-0.959759 0.499974,-0.959759 0.08082,0 0.208721,-0.349406 0.284227,-0.776461 0.0755,-0.42705 0.506904,-1.886131 0.958668,-3.242398 0.451771,-1.356267 0.821396,-2.687959 0.821396,-2.959316 0,-0.271359 0.248085,-1.237517 0.5513,-2.14702 0.303215,-0.909504 0.839353,-2.517427 1.191417,-3.573162 0.352067,-1.055736 0.747314,-2.052409 0.878329,-2.21483 0.131015,-0.162421 0.289635,-0.56109 0.352492,-0.885932 0.132027,-0.682343 1.845517,-6.823083 2.636871,-9.44994 0.09785,-0.324842 0.395273,-1.370856 0.660919,-2.324477 0.265643,-0.953619 0.591129,-1.792762 0.723303,-1.864762 0.132166,-0.072 0.192803,-0.388814 0.134732,-0.704033 -0.05807,-0.315216 -0.01317,-0.738526 0.09989,-0.940686 0.113014,-0.202162 0.315809,-0.854151 0.450668,-1.448867 0.134857,-0.594716 0.373821,-1.151369 0.531029,-1.237005 0.169751,-0.09247 0.241069,-0.398679 0.175616,-0.753999 -0.07009,-0.38051 0.472973,-2.315934 1.491894,-5.316924 C 64.430409,7.5656151 65.090226,5.301813 65.015507,5.1301883 64.767742,4.5610873 63.9033,4.801858 63.485191,5.5564219 63.260193,5.9624741 62.94448,6.2946985 62.783605,6.2946985 c -0.160875,0 -0.404836,0.1594678 -0.542133,0.3543728 -0.137297,0.194905 -0.249632,0.2466277 -0.249632,0.1149349 0,-0.1316889 -0.193237,0.0743 -0.429419,0.4577314 -0.275393,0.4471023 -0.466392,0.572249 -0.532498,0.3489036 C 60.926533,7.221338 60.09746,7.8509166 58.83213,9.2395952 57.870534,10.294929 57.014955,10.631113 52.838684,11.594609 40.233926,14.502613 28.616836,18.539405 20.388522,22.87063 16.715039,24.804281 11.426315,28.481047 8.9451315,30.826174 2.8930317,36.546406 0.18466635,43.969364 2.0773924,49.648937 4.8943128,58.101775 14.390638,63.236348 32.452105,66.072269 c 16.029011,2.516795 34.058598,2.900404 56.479144,1.201684 34.356061,-2.603023 58.387401,-6.854138 77.801841,-13.763054 8.09797,-2.881779 13.62014,-5.596861 19.13842,-9.409774 4.17436,-2.884305 6.83709,-5.362099 8.85772,-8.242488 3.59153,-5.119696 3.71916,-9.81968 0.39517,-14.551722 C 188.96386,12.536815 173.297,6.984113 148.6348,4.8299263 133.55245,3.512518 113.95373,3.5683376 97.913737,4.9743923 91.068436,5.5744457 91.531578,5.6139071 91.531578,4.4305935 l 0,-0.9781732 4.628586,-0.3525556 C 108.09183,2.1910364 112.49242,2.0328621 125.85592,2.0324802 c 15.43174,-4.39e-4 21.72562,0.346673 32.14007,1.7725489 22.80989,3.1229768 36.7929,10.0311329 40.19166,19.8562399 0.52454,1.516316 0.58149,1.984688 0.58149,4.781729 0,2.971146 -0.0301,3.180999 -0.72049,5.02028 -5.21494,13.893489 -31.3488,25.497896 -71.46464,31.732962 -12.08328,1.878064 -23.05759,3.052018 -39.004932,4.172468 -5.992117,0.421001 -33.878197,0.818445 -37.652763,0.536642 z M 34.118801,49.370014 c -2.766394,-0.655794 -3.954985,-2.451537 -3.954985,-5.975254 0,-4.743222 2.02522,-9.440358 4.863652,-11.280368 3.219959,-2.08733 7.999623,-2.190219 9.544541,-0.205454 0.477179,0.613034 0.646647,0.312585 0.998676,-1.77054 0.533885,-3.159261 -0.10178,-3.638318 -4.472728,-3.370822 -3.239585,0.198258 -4.224178,0.459466 -6.005815,1.593312 -1.189551,0.757038 -1.214569,0.76023 -1.599513,0.204108 -0.383342,-0.553805 -0.363547,-0.637815 1.002989,-4.256339 l 1.394048,-3.691383 5.094084,0.09635 c 2.801744,0.053 5.642095,0.213949 6.311894,0.357682 1.609748,0.345439 2.928418,1.284497 3.624453,2.581066 0.52816,0.983853 0.56555,1.246091 0.553586,3.882636 -0.01206,2.674465 -0.119643,3.347031 -1.98615,12.425114 l -1.973324,9.597596 -6.126874,0.04146 c -3.369781,0.0228 -6.640621,-0.08032 -7.268534,-0.229169 z m 6.511,-5.097912 c 0.664845,-0.222068 1.449494,-0.718329 1.743657,-1.102802 0.71293,-0.931788 1.301872,-2.806561 1.3075,-4.162132 0.0069,-1.681857 -0.598475,-2.108293 -2.754834,-1.940291 -2.968457,0.231272 -4.408956,1.848499 -4.414566,4.956171 -0.0028,1.567436 0.02434,1.647802 0.725152,2.144792 0.872049,0.618422 1.771057,0.646045 3.393091,0.104264 z m 55.914569,4.978305 c -2.603809,-0.805995 -3.618491,-2.505126 -3.590828,-6.013014 0.03647,-4.626092 2.069094,-9.297225 4.818826,-11.0741 3.294282,-2.128764 8.060732,-2.262172 9.612162,-0.269032 0.45181,0.580434 0.43543,0.603501 0.86303,-1.215205 0.45217,-1.923171 0.43162,-2.620604 -0.0972,-3.297696 -0.39407,-0.504578 -0.77466,-0.560596 -3.69247,-0.543476 -3.43354,0.02014 -5.036745,0.406111 -6.85142,1.649459 -0.856412,0.586783 -0.911028,0.590586 -1.300252,0.09054 -0.39983,-0.513666 -0.386048,-0.576397 0.866874,-3.94598 0.700237,-1.88321 1.378965,-3.578395 1.508278,-3.767077 0.374636,-0.546632 11.60135,-0.02138 12.78245,0.598031 2.11982,1.111725 2.94339,2.819553 2.93881,6.094208 -0.002,1.543199 -0.40314,3.887961 -2.0453,11.96008 l -2.0426,10.040562 -6.21919,0.05251 c -4.664596,0.03937 -6.552143,-0.05056 -7.551195,-0.359813 z m 6.90938,-4.978305 c 1.37551,-0.459444 2.10938,-1.281664 2.66254,-2.983084 0.50797,-1.562406 0.49937,-2.950019 -0.0229,-3.691383 -0.33417,-0.474377 -0.69242,-0.590296 -1.82023,-0.588973 -3.31668,0.0039 -5.178055,2.018546 -5.003636,5.415664 0.05492,1.069597 0.156501,1.29348 0.791096,1.743514 0.87205,0.618422 1.77106,0.646045 3.39309,0.104264 z m 10.08375,3.735233 c 0.18704,-0.93392 2.03322,-10.003648 4.10261,-20.154951 l 3.76253,-18.456916 2.97924,-0.082155 c 2.34666,-0.064712 2.95987,-0.00197 2.88801,0.2953106 -0.0502,0.2076034 -1.90682,9.3142978 -4.12589,20.2370998 l -4.03466,19.85964 -2.95597,0 -2.95596,0 0.34008,-1.698036 z m 12.45652,-8.26249 c -0.0756,-5.485118 -0.13758,-11.999511 -0.13777,-14.476429 l -3.3e-4,-4.503487 2.9096,0 2.9096,0 0.0548,9.958166 0.0548,9.958168 3.86546,-9.88434 3.86548,-9.884338 3.0514,-0.08172 c 1.67827,-0.04495 3.05065,0.0215 3.04972,0.147656 -9.3e-4,0.126156 -2.60173,6.608087 -5.77956,14.404287 l -5.77785,14.174911 -3.96394,0.08003 -3.96394,0.08005 -0.13742,-9.972946 z m 20.56052,9.775709 c -0.22883,-0.06396 -0.88941,-0.25167 -1.46797,-0.417111 -1.23854,-0.35417 -2.50912,-1.713882 -2.92642,-3.13171 -0.59025,-2.005411 -0.23228,-5.616312 0.85948,-8.669409 1.6308,-4.560588 5.13602,-6.976853 9.77855,-6.740699 1.81498,0.09231 2.20754,0.209464 3.0496,0.910006 l 0.96648,0.804046 0.33083,-1.378321 c 0.18195,-0.758076 0.33083,-1.826544 0.33083,-2.37437 0,-1.428932 -0.82363,-1.851844 -3.60652,-1.851844 -2.66825,0 -5.45931,0.664651 -7.05204,1.679337 -1.13538,0.723318 -1.22688,0.738784 -1.5924,0.269197 -0.37503,-0.481803 -0.34349,-0.616949 0.95759,-4.102654 0.73997,-1.982442 1.40722,-3.690721 1.48278,-3.796179 0.0756,-0.105465 2.7585,-0.09184 5.9621,0.03024 5.23894,0.19965 5.94118,0.285843 6.98255,0.857041 0.63679,0.349285 1.39765,1.000128 1.69079,1.446317 1.63801,2.493172 1.56382,3.734386 -0.97966,16.388889 l -2.06261,10.262045 -6.14395,-0.03426 c -3.37918,-0.0189 -6.33118,-0.08658 -6.56001,-0.150569 z m 6.82495,-5.665913 c 1.15566,-0.725686 1.85152,-2.261294 1.97388,-4.355857 0.0825,-1.413067 0.0429,-1.591677 -0.45678,-2.056425 -0.87122,-0.81036 -3.70972,-0.502133 -4.96081,0.538682 -1.36254,1.133544 -2.15271,3.656916 -1.6859,5.383837 0.37519,1.387939 3.26058,1.663428 5.12961,0.489763 z"
     id="path4138" />
</svg>
