<?xml version="1.0" encoding="UTF-8" standalone="no"?>
<svg
   xmlns:dc="http://purl.org/dc/elements/1.1/"
   xmlns:cc="http://creativecommons.org/ns#"
   xmlns:rdf="http://www.w3.org/1999/02/22-rdf-syntax-ns#"
   xmlns:svg="http://www.w3.org/2000/svg"
   xmlns="http://www.w3.org/2000/svg"
   id="svg2"
   version="1.1"
   width="607.75281"
   height="283.25656"
   viewBox="0 0 607.75281 283.25656">
  <metadata
     id="metadata8">
    <rdf:RDF>
      <cc:Work
         rdf:about="">
        <dc:format>image/svg+xml</dc:format>
        <dc:type
           rdf:resource="http://purl.org/dc/dcmitype/StillImage" />
        <dc:title></dc:title>
      </cc:Work>
    </rdf:RDF>
  </metadata>
  <defs
     id="defs6" />
  <path
     style="fill:#414e5b;fill-opacity:1"
     d="m 304.00421,279.42544 c -4.55958,-9.70015 -42.3582,-81.19552 -42.94708,-81.23358 -0.36513,-0.0236 -9.08241,8.61576 -19.37174,19.19858 l -18.70786,19.2415 -110.46636,-0.92975 C 51.754679,235.19081 1.584735,234.48808 1.02241,234.14054 0.351083,233.72564 0,211.90764 0,170.60303 l 0,-62.90562 11.376405,-4.23159 C 17.633427,101.13844 83.205961,76.90652 157.09315,49.61711 L 291.43348,0 330.0145,13.28166 c 21.21955,7.3049 44.26921,15.2417 51.22146,17.63731 6.95224,2.39561 28.68118,9.83306 48.28651,16.52766 l 35.64607,12.17199 0,-18.66945 0,-18.66946 20.22472,0 20.22472,0 0,25.56598 0,25.56597 7.83708,2.66444 c 4.31039,1.46543 26.67084,9.05996 49.68988,16.87671 23.01904,7.81675 42.09348,14.45295 42.38764,14.74712 0.29416,0.29416 -37.42444,0.49891 -83.81909,0.455 -46.39467,-0.0439 -83.89888,-0.26659 -83.3427,-0.49486 0.55618,-0.22827 16.9106,-3.61558 36.34316,-7.52737 19.43256,-3.91178 35.48187,-7.26229 35.66515,-7.44557 C 511.12006,91.94617 490.13089,83.16154 396.45681,45.00709 342.5542,23.05198 297.41985,5.0887 296.15826,5.0887 c -1.2616,0 -11.19,3.23295 -22.06311,7.18433 -25.32825,9.2045 -239.534611,88.40442 -262.213128,96.94978 l -5.814606,2.19098 0,56.55655 0,56.55656 106.424334,0 106.42434,0 22.47031,-22.45367 c 12.35867,-12.34951 22.6913,-22.23268 22.9614,-21.96259 0.27009,0.2701 10.12628,18.90656 21.90264,41.41434 11.77636,22.5078 21.76709,41.31145 22.20163,41.7859 0.43452,0.47444 9.39561,-7.83034 19.91353,-18.45506 l 19.12347,-19.31769 130.13187,0 130.13187,0 0,4.89371 0,4.8937 -27.46767,0.66809 c -15.1072,0.36746 -72.5545,0.6681 -127.66063,0.6681 l -100.19297,0 -23.31326,23.29742 -23.31325,23.29742 z m 126.78231,-55.90978 c -287.19101,39.82727 -143.59551,19.91363 0,0 z"
     id="path4138" />
</svg>
